<?xml version="1.0" encoding="UTF-8" standalone="no"?>
<!-- Created with Inkscape (http://www.inkscape.org/) -->

<svg
   xmlns:dc="http://purl.org/dc/elements/1.1/"
   xmlns:cc="http://creativecommons.org/ns#"
   xmlns:rdf="http://www.w3.org/1999/02/22-rdf-syntax-ns#"
   xmlns:svg="http://www.w3.org/2000/svg"
   xmlns="http://www.w3.org/2000/svg"
   xmlns:xlink="http://www.w3.org/1999/xlink"
   xmlns:sodipodi="http://sodipodi.sourceforge.net/DTD/sodipodi-0.dtd"
   xmlns:inkscape="http://www.inkscape.org/namespaces/inkscape"
   width="144"
   height="144"
   id="svg3034"
   version="1.1"
   inkscape:version="0.48.2 r9819"
   sodipodi:docname="icon.svg"
   inkscape:export-filename="/mnt/vbox/client/images/app-icon.png"
   inkscape:export-xdpi="71.25"
   inkscape:export-ydpi="71.25">
  <defs
     id="defs3036">
    <filter
       color-interpolation-filters="sRGB"
       inkscape:collect="always"
       id="filter3857">
      <feGaussianBlur
         inkscape:collect="always"
         stdDeviation="0.90192196"
         id="feGaussianBlur3859" />
    </filter>
    <filter
       inkscape:collect="always"
       id="filter3831"
       x="-0.12"
       width="1.24"
       y="-0.12"
       height="1.24"
       color-interpolation-filters="sRGB">
      <feGaussianBlur
         inkscape:collect="always"
         stdDeviation="0.98473911"
         id="feGaussianBlur3833" />
    </filter>
    <linearGradient
       inkscape:collect="always"
       xlink:href="#linearGradient3801"
       id="linearGradient3869"
       gradientUnits="userSpaceOnUse"
       gradientTransform="matrix(5.4853025,0,0,5.4853025,-14.981318,813.21318)"
       x1="13.881628"
       y1="-2.9251022"
       x2="30.397142"
       y2="24.222748" />
    <linearGradient
       inkscape:collect="always"
       id="linearGradient3801">
      <stop
         style="stop-color:#ffffff;stop-opacity:1;"
         offset="0"
         id="stop3803" />
      <stop
         style="stop-color:#ffffff;stop-opacity:0;"
         offset="1"
         id="stop3805" />
    </linearGradient>
    <linearGradient
       y2="24.222748"
       x2="30.397142"
       y1="-2.9251022"
       x1="13.881628"
       gradientTransform="matrix(5.4853025,0,0,5.4853025,-14.981318,813.21318)"
       gradientUnits="userSpaceOnUse"
       id="linearGradient3865"
       xlink:href="#linearGradient3801"
       inkscape:collect="always" />
    <linearGradient
       inkscape:collect="always"
       xlink:href="#linearGradient3801"
       id="linearGradient3947"
       gradientUnits="userSpaceOnUse"
       gradientTransform="matrix(5.4853025,0,0,5.4853025,-14.981318,813.21318)"
       x1="13.881628"
       y1="-2.9251022"
       x2="30.397142"
       y2="24.222748" />
    <linearGradient
       inkscape:collect="always"
       xlink:href="#linearGradient3801"
       id="linearGradient3983"
       gradientUnits="userSpaceOnUse"
       gradientTransform="matrix(5.4853025,0,0,5.4853025,-14.981318,813.21318)"
       x1="13.881628"
       y1="-2.9251022"
       x2="30.397142"
       y2="24.222748" />
  </defs>
  <sodipodi:namedview
     id="base"
     pagecolor="#ffffff"
     bordercolor="#666666"
     borderopacity="1.0"
     inkscape:pageopacity="0.0"
     inkscape:pageshadow="2"
     inkscape:zoom="4.5833333"
     inkscape:cx="72"
     inkscape:cy="70.09378"
     inkscape:document-units="px"
     inkscape:current-layer="g3939"
     showgrid="false"
     inkscape:window-width="1242"
     inkscape:window-height="807"
     inkscape:window-x="0"
     inkscape:window-y="24"
     inkscape:window-maximized="1" />
  <metadata
     id="metadata3039">
    <rdf:RDF>
      <cc:Work
         rdf:about="">
        <dc:format>image/svg+xml</dc:format>
        <dc:type
           rdf:resource="http://purl.org/dc/dcmitype/StillImage" />
        <dc:title></dc:title>
      </cc:Work>
    </rdf:RDF>
  </metadata>
  <g
     inkscape:label="Background"
     inkscape:groupmode="layer"
     id="layer1"
     transform="translate(0,-908.3622)"
     sodipodi:insensitive="true">
    <rect
       style="fill:#fdf6e3;fill-opacity:1;stroke:none"
       id="rect3042"
       width="144"
       height="144"
       x="-0.21818182"
       y="-0.21818182"
       transform="translate(0,908.3622)" />
  </g>
  <g
     inkscape:groupmode="layer"
     id="layer2"
     inkscape:label="Shape">
    <g
       id="g3861"
       transform="matrix(0.56266001,0,0,0.55994499,4.8440071,-453.37227)">
      <g
         id="g3939"
         transform="matrix(0.97473476,0,0,0.9693069,3.0155196,28.79801)">
        <g
           id="g3957"
           transform="matrix(0.91482894,0,0,0.93983949,10.165548,56.446016)">
          <path
             transform="matrix(5.4853025,0,0,5.4853025,-14.981318,-4696.0173)"
             style="fill:#000000;fill-opacity:1;stroke:#000000;stroke-width:0.82037407;stroke-miterlimit:4;stroke-opacity:1;stroke-dasharray:none;filter:url(#filter3857)"
             d="m 8.292685,1008.6986 c 12.642796,-3.254 22.972321,-2.3299 32.52344,0 0,0 2.463116,19.4164 -1.943632,27.6291 -2.850147,5.3117 -9.631775,11.3985 -14.447662,11.3985 -4.815889,0 -11.622359,-6.0747 -14.447665,-11.3985 -4.3658895,-8.2267 -1.684481,-27.6291 -1.684481,-27.6291 z"
             id="path3809"
             inkscape:connector-curvature="0"
             sodipodi:nodetypes="ccasac" />
          <path
             sodipodi:nodetypes="ccasac"
             inkscape:connector-curvature="0"
             id="rect2985"
             d="m 30.506568,836.99988 c 69.349562,-17.84957 126.010132,-12.78038 178.400912,0 0,0 13.51093,106.50486 -10.66141,151.55384 -15.63392,29.13638 -52.8332,62.52438 -79.2498,62.52438 -26.416608,0 -63.752155,-33.3218 -79.249814,-62.52438 C 15.798231,943.42787 30.506568,836.99988 30.506568,836.99988 z"
             style="fill:#969696;fill-opacity:1;stroke:#c8c8c8;stroke-width:4.67048836;stroke-miterlimit:4;stroke-opacity:1" />
          <path
             transform="matrix(5.5633249,0,0,5.5437856,-17.499004,-4755.5964)"
             d="m 25.6875,1007.5625 c -5.077277,-0.1096 -10.532112,0.4639 -16.5,1.9375 -0.075503,0.5668 -0.6041488,4.499 -0.71875,9.9375 -0.1225404,5.8152 0.3794405,12.646 2.375,16.4063 1.332309,2.5105 3.654701,5.3006 6.21875,7.4062 2.564049,2.1056 5.37738,3.5 7.375,3.5 1.996802,0 4.790103,-1.3928 7.34375,-3.5 2.553647,-2.1072 4.903543,-4.8969 6.25,-7.4062 2.016247,-3.7577 2.565766,-10.5888 2.5,-16.4063 -0.06152,-5.4416 -0.586979,-9.3716 -0.65625,-9.9375 -4.508254,-1.062 -9.176795,-1.8295 -14.1875,-1.9375 z"
             id="path3758"
             style="fill:none;stroke:#ffffff;stroke-width:0.94251329;stroke-miterlimit:4;stroke-opacity:1;stroke-dasharray:none"
             inkscape:original="M 25.71875 1006.5938 C 20.362129 1006.4782 14.602648 1007.0605 8.28125 1008.6875 C 8.28125 1008.6875 5.6028603 1028.0858 9.96875 1036.3125 C 12.794056 1041.6363 19.621611 1047.7188 24.4375 1047.7188 C 29.253387 1047.7188 36.024853 1041.6242 38.875 1036.3125 C 43.281748 1028.0998 40.8125 1008.6875 40.8125 1008.6875 C 36.036941 1007.5226 31.075371 1006.7093 25.71875 1006.5938 z "
             inkscape:radius="-0.97463816"
             sodipodi:type="inkscape:offset" />
          <path
             sodipodi:type="star"
             style="fill:#000000;fill-opacity:1;stroke:#000000;stroke-width:1;stroke-linecap:butt;stroke-miterlimit:4;stroke-opacity:1;stroke-dasharray:none;filter:url(#filter3831)"
             id="path3778"
             sodipodi:sides="5"
             sodipodi:cx="19.824244"
             sodipodi:cy="16.053926"
             sodipodi:r1="10.47729"
             sodipodi:r2="4.4980216"
             sodipodi:arg1="0.78539816"
             sodipodi:arg2="1.4137167"
             inkscape:flatsided="false"
             inkscape:rounded="0.08"
             inkscape:randomized="0"
             d="m 27.232806,23.462489 c -0.414738,0.414739 -6.125609,-3.057672 -6.704917,-2.965919 -0.579308,0.09175 -4.937634,5.158969 -5.460236,4.89269 -0.522601,-0.266278 1.015103,-6.770673 0.748824,-7.293274 -0.266279,-0.522602 -6.4322842,-3.101761 -6.3405308,-3.681069 0.091753,-0.579308 6.7529768,-1.126833 7.1677158,-1.541572 0.414739,-0.414739 0.962264,-7.0759625 1.541572,-7.1677159 0.579308,-0.091753 3.158467,6.0742519 3.681069,6.3405309 0.522601,0.266279 7.026996,-1.271425 7.293274,-0.748824 0.266279,0.522602 -4.800937,4.880928 -4.89269,5.460236 -0.09175,0.579308 3.380658,6.290179 2.965919,6.704917 z"
             transform="matrix(5.4853025,0,0,5.4853025,13.956094,839.53295)"
             inkscape:transform-center-x="0.50648169"
             inkscape:transform-center-y="-0.50648169" />
          <path
             inkscape:transform-center-y="-0.50648169"
             inkscape:transform-center-x="0.50648169"
             transform="matrix(5.4853025,0,0,5.4853025,13.956094,839.53295)"
             d="m 27.232806,23.462489 c -0.414738,0.414739 -6.125609,-3.057672 -6.704917,-2.965919 -0.579308,0.09175 -4.937634,5.158969 -5.460236,4.89269 -0.522601,-0.266278 1.015103,-6.770673 0.748824,-7.293274 -0.266279,-0.522602 -6.4322842,-3.101761 -6.3405308,-3.681069 0.091753,-0.579308 6.7529768,-1.126833 7.1677158,-1.541572 0.414739,-0.414739 0.962264,-7.0759625 1.541572,-7.1677159 0.579308,-0.091753 3.158467,6.0742519 3.681069,6.3405309 0.522601,0.266279 7.026996,-1.271425 7.293274,-0.748824 0.266279,0.522602 -4.800937,4.880928 -4.89269,5.460236 -0.09175,0.579308 3.380658,6.290179 2.965919,6.704917 z"
             inkscape:randomized="0"
             inkscape:rounded="0.08"
             inkscape:flatsided="false"
             sodipodi:arg2="1.4137167"
             sodipodi:arg1="0.78539816"
             sodipodi:r2="4.4980216"
             sodipodi:r1="10.47729"
             sodipodi:cy="16.053926"
             sodipodi:cx="19.824244"
             sodipodi:sides="5"
             id="path3768"
             style="fill:#333333;fill-opacity:1;stroke:#ffffff;stroke-width:0.80000001;stroke-linecap:butt;stroke-miterlimit:4;stroke-opacity:1;stroke-dasharray:none"
             sodipodi:type="star" />
          <path
             sodipodi:nodetypes="scsccsccs"
             inkscape:connector-curvature="0"
             id="path3796"
             d="m 115.98028,829.32636 c -24.98887,0.31052 -52.422836,3.45446 -81.247153,10.57209 -0.41677,3.12866 -2.628203,25.06035 -3.260789,55.07994 -0.520725,24.71114 1.102659,52.6436 6.856628,73.70888 49.040184,-41.77626 112.474324,-55.82062 170.044374,-49.57857 0.0521,-3.72782 0.21233,-20.51193 0.1714,-24.13031 -0.33954,-30.03689 -3.38877,-51.72933 -3.77114,-54.8529 -24.88506,-5.8623 -50.50702,-10.20303 -78.16556,-10.79913 -3.50325,-0.0764 -7.05793,-0.0509 -10.62776,0 z"
             style="fill:url(#linearGradient3983);fill-opacity:1;stroke:none" />
        </g>
      </g>
    </g>
  </g>
</svg>
